<svg width="1280" height="665" viewBox="0 0 1280 665" fill="none" xmlns="http://www.w3.org/2000/svg">
<g clip-path="url(#clip0_102_2)">
<path d="M140.175 327.522L200.91 317.099L198.771 304.598L144.281 313.95L126.799 302.026L102.193 158.511L114.698 141.436L169.188 132.084L167.041 119.582L106.307 130.004L87.2203 158.243L112.775 307.264L140.175 327.522Z" fill="#6D6145"/>
<path d="M283.205 150.349L239.97 157.769L242.032 169.77L280.273 163.204L296.755 175.301L304.085 218.052L244.101 228.345L230.613 266.695L232.156 275.694L257.651 307.35L332.633 294.486L311.451 170.969L283.214 150.332L283.205 150.349ZM264.585 293.821L247.845 271.216L246.904 265.712L255.158 238.819L306.147 230.07L315.582 285.073L264.594 293.821H264.585Z" fill="#6D6145"/>
<path d="M363.742 148.891L383.371 263.4L409.348 281.337L458.086 272.968L456.025 260.967L415.532 267.921L397.8 256.031L378.981 146.268L434.713 136.708L432.661 124.707L376.929 134.267L370.279 95.5189L355.031 98.1331L361.68 136.889L334.685 141.523L336.747 153.524L363.742 148.891Z" fill="#6D6145"/>
<path d="M534.06 259.931L582.297 251.657L580.236 239.656L537.751 246.946L518.768 235.273L502.434 140.013L516.44 122.688L558.933 115.389L556.872 103.388L508.635 111.67L488.867 137.45L506.832 242.21L534.06 259.931Z" fill="#6D6145"/>
<path d="M638.279 242.046L614.864 105.536L658.858 97.9865L673.407 107.848L694.762 232.357L708.259 230.044L686.137 101.023L662.299 85.0447L612.811 93.5345L602.263 32.0266L588.766 34.3475L624.782 244.367L638.279 242.046Z" fill="#6D6145"/>
<path d="M924.934 192.858L901.57 56.5901L914.568 54.3641L932.05 66.2878L952.93 188.053L968.178 185.438L946.522 59.1784L922.511 40.6458L838.283 55.0974L863.709 203.367L878.948 200.753L855.584 64.4845L877.577 60.7142L888.082 67.9184L909.945 195.429L924.934 192.858Z" fill="#6D6145"/>
<path d="M1023.41 175.956L1082.14 165.879L1080.08 153.878L1026.35 163.101L1010.12 150.961L1002.06 103.957L1073.54 91.6881L1064.66 39.9297L1038.73 20.6982L998.485 27.6005L980.434 54.3727L997.968 156.63L1023.41 175.948V175.956ZM1007.54 38.4026L1036.29 33.4674L1052.52 45.6068L1058.78 82.1112L1000.05 92.1886L993.785 55.6841L1007.54 38.3939V38.4026Z" fill="#6D6145"/>
<path d="M72.6858 429.206L39.9418 434.823L45.8553 469.322L78.5993 463.705L72.6858 429.206Z" fill="#6D6145"/>
<path d="M101.097 621.74L96.3279 617.926L73.6884 485.912L20.7076 495.005L22.7602 507.007L56.7497 501.174L61.5191 504.988L81.3298 620.498L78.1041 625.683L39.6126 632.292L41.6739 644.293L141.641 627.141L139.589 615.14L101.097 621.74Z" fill="#6D6145"/>
<path d="M180.159 467.647L174.156 432.643L184.411 415.949L219.901 409.857L217.848 397.865L175.855 405.069L158.39 430.711L165.161 470.218L134.673 475.446L136.725 487.448L167.222 482.219L190.629 618.729L205.619 616.158L182.211 479.648L234.701 470.64L232.639 458.639L180.159 467.647Z" fill="#6D6145"/>
<path d="M476.862 416.984L479.259 430.987L472.23 558.058L463.235 559.594L407.028 443.385L404.631 429.382L389.132 432.039L392.03 445.956L455.542 573.269L469.289 570.913L465.581 633.319L479.828 630.877L484.788 568.256L494.508 428.373L492.101 414.37L476.862 416.984Z" fill="#6D6145"/>
<path d="M588.326 397.856L543.84 405.492L526.073 430.935L544.039 535.694L569.265 553.761L613.751 546.125L631.518 520.682L613.553 415.923L588.326 397.856ZM605.446 535.194L573.457 540.681L555.975 528.749L539.64 433.489L552.146 416.414L584.134 410.927L601.616 422.851L617.951 518.111L605.446 535.185V535.194Z" fill="#6D6145"/>
<path d="M721.032 375.087L741.912 496.843L729.157 513.97L701.661 518.68L683.929 506.8L663.049 385.035L649.802 387.313L671.501 513.823L695.469 532.097L739.463 524.547L755.97 499.328L734.28 372.809L721.032 375.087Z" fill="#6D6145"/>
<path d="M962.581 473.91L943.598 462.237L927.263 366.977L941.278 349.644L983.763 342.353L981.702 330.352L933.464 338.634L913.705 364.414L931.67 469.174L958.89 486.895L1007.13 478.621L1005.07 466.62L962.581 473.91Z" fill="#6D6145"/>
<path d="M1082.92 312.984L1039.68 320.404L1041.75 332.405L1079.99 325.839L1096.47 337.936L1103.8 380.687L1043.82 390.98L1030.33 429.33L1031.87 438.329L1057.36 469.985L1132.35 457.121L1111.17 333.604L1082.93 312.967L1082.92 312.984ZM1064.3 456.456L1047.56 433.851L1046.62 428.347L1054.87 401.454L1105.86 392.705L1115.3 447.708L1064.31 456.456H1064.3Z" fill="#6D6145"/>
<path d="M92.3778 310.758C93.2834 316.047 96.164 320.714 100.476 323.907L127.877 344.173C131.447 346.814 135.811 348.229 140.21 348.229C141.365 348.229 142.53 348.134 143.677 347.935L204.411 337.513C209.862 336.581 214.623 333.578 217.814 329.057C221.005 324.545 222.247 319.049 221.315 313.596L219.168 301.095C218.236 295.642 215.235 290.879 210.716 287.687C206.205 284.495 200.72 283.252 195.269 284.184L149.033 292.122L145.721 289.861L124.082 163.662L126.454 160.426L172.69 152.489C183.936 150.556 191.517 139.832 189.594 128.581L187.447 116.079C186.515 110.626 183.514 105.864 178.995 102.671C174.484 99.4791 168.999 98.2367 163.548 99.1685L102.814 109.591C97.2852 110.54 92.3088 113.75 89.1609 118.4L70.0747 146.639C67.0733 151.082 65.9176 156.449 66.8232 161.738L92.3778 310.758ZM75.7928 150.513L94.879 122.274C96.9747 119.176 100.287 117.037 103.978 116.398L164.712 105.976C165.497 105.838 166.29 105.777 167.075 105.777C169.904 105.777 172.655 106.649 175.01 108.314C178.02 110.445 180.021 113.62 180.642 117.252L182.789 129.754C184.074 137.26 179.02 144.404 171.526 145.698L123.918 153.869C123.038 154.024 122.245 154.507 121.719 155.232L117.656 160.78C117.105 161.539 116.88 162.48 117.036 163.403L139.166 292.493C139.321 293.416 139.848 294.236 140.624 294.762L146.299 298.636C147.04 299.136 147.946 299.335 148.826 299.188L196.433 291.017C200.064 290.396 203.721 291.224 206.731 293.355C209.741 295.487 211.742 298.662 212.363 302.294L214.511 314.796C215.132 318.428 214.304 322.086 212.173 325.097C210.043 328.108 206.869 330.11 203.238 330.731L142.504 341.154C138.821 341.784 134.975 340.869 131.973 338.652L104.573 318.385C101.701 316.262 99.7777 313.148 99.174 309.619L73.6194 160.599C73.0156 157.07 73.7832 153.498 75.7928 150.53V150.513Z" fill="#6D6145"/>
<path d="M340.248 173.929L346.837 172.799L362.974 266.902C363.914 272.364 367.062 277.299 371.616 280.44L397.593 298.377C402.069 301.466 407.486 302.665 412.85 301.742L461.588 293.381C467.038 292.45 471.799 289.447 474.99 284.926C478.181 280.414 479.423 274.918 478.492 269.474L476.43 257.472C474.499 246.222 463.778 238.638 452.532 240.562L420.19 246.109L416.705 243.771L402.889 163.178L438.224 157.113C443.674 156.181 448.435 153.179 451.626 148.658C454.817 144.145 456.059 138.65 455.128 133.205L453.066 121.204C452.135 115.751 449.134 110.989 444.614 107.796C440.104 104.604 434.618 103.362 429.168 104.293L393.833 110.359L390.685 92.016C388.753 80.7653 378.024 73.1814 366.786 75.1054L351.538 77.7197C346.087 78.6515 341.326 81.654 338.135 86.1749C334.944 90.6873 333.702 96.1833 334.634 101.627L337.782 119.97L331.193 121.1C319.946 123.033 312.365 133.758 314.288 145.008L314.763 147.761L295.418 133.628C290.924 130.341 285.198 128.995 279.712 129.944L236.477 137.364C225.231 139.297 217.65 150.021 219.573 161.272L221.634 173.273C222.566 178.726 225.567 183.488 230.087 186.681C234.597 189.873 240.082 191.124 245.533 190.184L275.115 185.11L277.772 187.06L280.187 201.158L240.609 207.948C233.217 209.217 227.077 214.402 224.584 221.485L211.095 259.836C209.931 263.158 209.62 266.739 210.215 270.207L211.759 279.206C212.354 282.674 213.838 285.953 216.046 288.696L241.54 320.352C245.507 325.278 251.467 328.065 257.659 328.065C258.824 328.065 259.988 327.97 261.152 327.763L336.134 314.899C341.585 313.967 346.346 310.965 349.537 306.444C352.728 301.932 353.97 296.436 353.039 290.991L332.952 173.868C335.341 174.317 337.799 174.343 340.257 173.92L340.248 173.929ZM325.155 169.27L346.225 292.165C346.846 295.797 346.018 299.455 343.888 302.466C341.758 305.478 338.584 307.479 334.953 308.1L259.971 320.965C255.037 321.81 250.027 319.912 246.896 316.021L221.402 284.365C219.927 282.536 218.944 280.353 218.547 278.041L217.003 269.042C216.606 266.73 216.805 264.34 217.589 262.123L231.078 223.772C232.743 219.052 236.831 215.593 241.764 214.747L284.749 207.37C286.629 207.051 287.888 205.265 287.569 203.384L284.335 184.507C284.18 183.626 283.697 182.833 282.972 182.306L278.013 178.665C277.418 178.225 276.702 178.001 275.969 178.001C275.771 178.001 275.581 178.018 275.383 178.053L244.36 183.376C240.729 183.997 237.072 183.169 234.062 181.038C231.052 178.907 229.052 175.732 228.431 172.1L226.369 160.098C225.084 152.592 230.138 145.448 237.633 144.154L280.868 136.734C284.525 136.104 288.346 137.002 291.338 139.193L317.557 158.356C318.695 159.184 320.213 159.244 321.412 158.502C322.602 157.76 323.232 156.371 322.991 154.982L321.076 143.843C319.791 136.337 324.845 129.193 332.34 127.899L342.327 126.182C344.207 125.863 345.466 124.077 345.147 122.196L341.421 100.445C340.8 96.8131 341.628 93.1549 343.758 90.1438C345.889 87.1326 349.063 85.131 352.694 84.5098L367.942 81.8955C375.437 80.61 382.586 85.6659 383.88 93.1635L387.606 114.914C387.761 115.82 388.27 116.623 389.012 117.149C389.762 117.675 390.685 117.891 391.59 117.736L430.323 111.092C433.954 110.471 437.611 111.299 440.621 113.43C443.631 115.561 445.632 118.736 446.253 122.369L448.314 134.37C448.935 138.002 448.107 141.661 445.977 144.672C443.847 147.683 440.673 149.685 437.042 150.306L398.309 156.949C396.429 157.268 395.17 159.054 395.489 160.935L410.142 246.394C410.306 247.326 410.84 248.154 411.625 248.68L417.481 252.606C418.215 253.098 419.111 253.288 419.983 253.141L453.679 247.36C461.174 246.075 468.323 251.131 469.608 258.628L471.67 270.63C472.291 274.262 471.463 277.92 469.332 280.931C467.202 283.942 464.028 285.944 460.397 286.565L411.66 294.926C408.089 295.538 404.476 294.745 401.491 292.682L375.514 274.745C372.478 272.649 370.374 269.353 369.753 265.72L353.03 168.217C352.875 167.311 352.366 166.509 351.624 165.983C350.874 165.456 349.951 165.249 349.045 165.396L339.058 167.113C335.996 167.639 332.917 167.13 330.175 165.637C329.01 165.008 327.596 165.094 326.518 165.87C325.449 166.638 324.905 167.958 325.129 169.261L325.155 169.27Z" fill="#6D6145"/>
<path d="M295.452 249.405C295.297 248.499 294.788 247.697 294.046 247.171C293.296 246.644 292.373 246.437 291.468 246.584L267.94 250.622C266.655 250.846 265.611 251.769 265.223 253.012L261.721 264.418C261.402 265.462 261.592 266.6 262.248 267.481L269.346 277.066C270.001 277.955 271.036 278.464 272.114 278.464C272.304 278.464 272.502 278.447 272.701 278.412L296.228 274.374C297.134 274.219 297.936 273.71 298.462 272.968C298.988 272.217 299.204 271.294 299.049 270.388L295.452 249.397V249.405ZM273.632 271.26L268.837 264.78L271.2 257.075L289.234 253.978L291.666 268.162L273.632 271.26Z" fill="#6D6145"/>
<path d="M486.435 245.712C487.41 251.381 490.73 256.428 495.543 259.569L522.762 277.29C526.151 279.499 530.058 280.647 534.034 280.647C535.207 280.647 536.38 280.543 537.553 280.345L585.79 272.071C597.037 270.138 604.618 259.414 602.694 248.163L600.633 236.161C598.701 224.911 587.981 217.327 576.734 219.251L541.934 225.221L537.579 222.547L524.409 145.759L527.626 141.781L562.426 135.811C567.877 134.879 572.638 131.877 575.829 127.356C579.02 122.843 580.262 117.347 579.33 111.903L577.269 99.9019C576.338 94.4491 573.336 89.6865 568.817 86.4942C564.306 83.3019 558.821 82.0595 553.37 82.9913L505.133 91.2654C499.976 92.1454 495.387 94.9236 492.205 99.0736L472.437 124.854C468.936 129.418 467.487 135.285 468.461 140.953L486.426 245.712H486.435ZM477.923 129.047L497.69 103.267C499.812 100.497 502.873 98.6508 506.306 98.0641L554.543 89.79C558.174 89.1688 561.831 89.9971 564.841 92.1282C567.851 94.2592 569.852 97.4343 570.473 101.067L572.534 113.068C573.155 116.7 572.327 120.358 570.197 123.37C568.067 126.381 564.893 128.382 561.262 129.004L525.185 135.198C524.357 135.336 523.616 135.776 523.089 136.432L518.079 142.636C517.458 143.412 517.19 144.413 517.363 145.388L531.059 225.256C531.222 226.231 531.809 227.094 532.654 227.611L539.45 231.787C540.166 232.227 541.011 232.391 541.839 232.244L577.916 226.05C581.547 225.428 585.204 226.257 588.214 228.388C591.224 230.519 593.224 233.694 593.845 237.326L595.907 249.328C597.192 256.834 592.138 263.978 584.643 265.272L536.406 273.546C532.973 274.133 529.472 273.417 526.548 271.51L499.329 253.788C496.12 251.7 493.904 248.327 493.257 244.548L475.292 139.788C474.645 136.009 475.611 132.092 477.94 129.055L477.923 129.047Z" fill="#6D6145"/>
<path d="M604.376 247.869C605.308 253.322 608.309 258.085 612.828 261.277C616.364 263.779 620.495 265.082 624.739 265.082C625.912 265.082 627.102 264.979 628.283 264.78L641.781 262.468C653.027 260.535 660.608 249.811 658.685 238.56L638.78 122.455L654.157 119.815L654.511 120.057L674.373 235.868C675.305 241.321 678.306 246.083 682.825 249.276C687.345 252.468 692.83 253.711 698.281 252.779L711.778 250.466C717.229 249.535 721.99 246.532 725.181 242.011C728.372 237.499 729.614 232.003 728.682 226.559L706.56 97.5465C705.603 91.9815 702.369 86.9946 697.685 83.8454L673.847 67.858C669.414 64.8901 664.084 63.7512 658.823 64.6485L629.741 69.6354L622.695 28.5409C620.763 17.2902 610.042 9.70634 598.796 11.6303L585.299 13.9426C579.848 14.8744 575.087 17.8769 571.896 22.3979C568.705 26.9103 567.463 32.4062 568.394 37.8504L604.411 247.869H604.376ZM577.493 26.3753C579.624 23.3642 582.797 21.3626 586.428 20.7414L599.926 18.4291C600.711 18.291 601.496 18.2306 602.263 18.2306C608.852 18.2306 614.708 22.9846 615.855 29.7057L623.488 74.2081C623.807 76.089 625.593 77.3487 627.473 77.0294L659.962 71.4558C663.472 70.8519 667.025 71.6111 669.975 73.5956L693.813 89.583C696.935 91.6795 699.091 95.0099 699.729 98.7198L721.852 227.732C722.472 231.364 721.645 235.023 719.514 238.034C717.384 241.045 714.21 243.047 710.579 243.668L697.082 245.98C693.442 246.601 689.785 245.773 686.784 243.642C683.774 241.511 681.773 238.336 681.152 234.703L661.048 117.442C660.893 116.519 660.358 115.691 659.582 115.165L656.865 113.327C656.124 112.826 655.227 112.637 654.347 112.783L634.2 116.243C632.32 116.562 631.061 118.348 631.38 120.229L651.872 239.733C653.157 247.24 648.103 254.383 640.608 255.678L627.111 257.99C623.48 258.611 619.823 257.783 616.813 255.652C613.803 253.521 611.802 250.346 611.181 246.713L575.165 36.6942C574.544 33.0619 575.372 29.4037 577.502 26.3926L577.493 26.3753Z" fill="#6D6145"/>
<path d="M896.724 211.365C901.312 215.161 907.409 216.878 913.447 215.843L928.445 213.272C933.697 212.374 938.346 209.484 941.485 205.308C945.841 208.199 951.179 209.372 956.432 208.466L971.68 205.852C982.926 203.919 990.507 193.195 988.584 181.944L987.316 174.559L1010.9 192.461C1015.44 195.913 1021.28 197.336 1026.91 196.378L1085.65 186.301C1091.1 185.369 1095.86 182.367 1099.05 177.846C1102.24 173.333 1103.48 167.838 1102.55 162.393L1100.49 150.392C1099.56 144.939 1096.56 140.177 1092.04 136.984C1087.52 133.792 1082.03 132.55 1076.58 133.481L1031.61 141.195L1029.11 139.322L1025.95 120.868L1077.02 112.102C1088.27 110.169 1095.85 99.4446 1093.92 88.1939L1085.05 36.4354C1084.14 31.1552 1081.27 26.4875 1076.97 23.3038L1051.03 4.07235C1046.52 0.724746 1040.75 -0.655709 1035.21 0.301982L994.966 7.20426C989.429 8.15332 984.444 11.3715 981.305 16.0392L963.254 42.82C962.719 43.6138 962.244 44.4334 961.831 45.2789C961.011 44.373 960.114 43.5448 959.148 42.7941L935.129 24.2701C930.558 20.7414 924.676 19.2832 918.992 20.2582L834.765 34.7098C829.314 35.6416 824.553 38.6441 821.362 43.1651C818.171 47.6775 816.929 53.1734 817.86 58.6176L843.286 206.879C844.217 212.331 847.218 217.094 851.738 220.286C855.274 222.788 859.405 224.091 863.648 224.091C864.821 224.091 866.011 223.988 867.193 223.789L882.441 221.175C888.478 220.14 893.653 216.49 896.715 211.382L896.724 211.365ZM881.286 214.359L866.037 216.973C862.406 217.594 858.741 216.766 855.74 214.635C852.73 212.504 850.729 209.329 850.108 205.697L824.682 57.427C824.061 53.7946 824.889 50.1364 827.02 47.1253C829.15 44.1142 832.324 42.1125 835.955 41.4913L920.182 27.0397C920.95 26.9103 921.726 26.8412 922.502 26.8412C925.53 26.8412 928.514 27.8421 930.946 29.7143L954.965 48.2469C957.372 50.1019 959.114 52.742 959.881 55.6928C960.321 57.3925 961.969 58.4796 963.702 58.238C965.436 57.9964 966.712 56.4865 966.669 54.7351C966.6 51.8361 967.402 49.0407 969.006 46.668L987.057 19.8958C989.153 16.7898 992.474 14.6415 996.165 14.0116L1036.41 7.10935C1040.1 6.47952 1043.95 7.39407 1046.96 9.62868L1072.89 28.8602C1075.76 30.9912 1077.67 34.0973 1078.27 37.6174L1087.15 89.3759C1088.43 96.8821 1083.38 104.026 1075.87 105.32L1021.39 114.673C1019.51 114.992 1018.25 116.778 1018.57 118.659L1022.56 141.876C1022.7 142.748 1023.19 143.524 1023.89 144.059L1028.68 147.64C1029.44 148.209 1030.39 148.442 1031.33 148.278L1077.75 140.315C1081.39 139.693 1085.04 140.522 1088.05 142.653C1091.06 144.784 1093.06 147.959 1093.68 151.591L1095.74 163.593C1096.37 167.225 1095.54 170.883 1093.41 173.894C1091.28 176.905 1088.1 178.907 1084.47 179.528L1025.74 189.606C1022 190.253 1018.1 189.304 1015.06 187L989.619 167.691C987.489 166.077 985.885 163.877 984.979 161.332C984.375 159.65 982.581 158.701 980.856 159.158C979.123 159.615 978.027 161.315 978.329 163.084L981.771 183.152C983.056 190.658 978.002 197.802 970.507 199.096L955.259 201.71C950.782 202.478 946.229 200.994 943.055 197.75C942.261 196.939 941.123 196.568 940.002 196.758C938.889 196.948 937.932 197.681 937.457 198.708C935.543 202.832 931.731 205.748 927.263 206.516L912.265 209.087C906.935 210.002 901.527 207.698 898.492 203.212C897.733 202.09 896.387 201.521 895.05 201.745C893.714 201.978 892.635 202.961 892.299 204.273C890.936 209.51 886.607 213.487 881.268 214.402L881.286 214.359Z" fill="#6D6145"/>
<path d="M1010.72 72.8622C1010.88 73.7681 1011.39 74.5705 1012.13 75.0968C1012.72 75.5109 1013.41 75.7266 1014.12 75.7266C1014.32 75.7266 1014.51 75.7094 1014.71 75.6749L1039.44 71.43C1041.32 71.1107 1042.58 69.3248 1042.26 67.4439L1040.08 54.7264C1039.93 53.855 1039.45 53.0785 1038.74 52.5436L1033.96 48.963C1033.2 48.3936 1032.24 48.1693 1031.31 48.3246L1016.36 50.8871C1015.52 51.0337 1014.77 51.4737 1014.24 52.1381L1009.4 58.2294C1008.78 58.9972 1008.52 59.9894 1008.7 60.9644L1010.73 72.8449L1010.72 72.8622ZM1018.81 57.4874L1031.01 55.3908L1033.5 57.2544L1034.86 65.2093L1016.93 68.2894L1015.74 61.3354L1018.81 57.4787V57.4874Z" fill="#6D6145"/>
<path d="M159.986 611.637C158.054 600.386 147.334 592.802 136.087 594.726L114 598.514L94.0941 482.409C93.8699 481.089 93.5163 479.803 93.0506 478.561C97.9407 473.841 100.209 467.034 99.036 460.192L93.1195 425.689C91.1876 414.439 80.4673 406.846 69.2208 408.779L36.4819 414.396C31.0312 415.327 26.2704 418.33 23.0793 422.851C19.8882 427.363 18.6463 432.859 19.5777 438.303L25.4942 472.806C25.5115 472.918 25.5373 473.039 25.5546 473.151L17.2146 474.583C11.7639 475.515 7.0031 478.518 3.81201 483.039C0.620914 487.551 -0.621026 493.047 0.310429 498.491L2.3717 510.492C4.30361 521.743 15.024 529.327 26.2704 527.403L43.8559 524.383L58.2072 608.073L36.1197 611.861C24.8732 613.794 17.2922 624.518 19.2155 635.769L21.2768 647.77C23.0017 657.848 31.7729 664.983 41.6653 664.983C42.821 664.983 43.9939 664.888 45.1755 664.681L145.152 647.529C156.398 645.596 163.979 634.872 162.056 623.621L159.995 611.62L159.986 611.637ZM143.979 640.747L44.0026 657.899C40.3716 658.52 36.7148 657.692 33.7048 655.561C30.6948 653.43 28.6939 650.255 28.073 646.623L26.0117 634.621C24.7266 627.115 29.7806 619.971 37.2754 618.677L62.761 614.303C64.6412 613.984 65.9004 612.198 65.5813 610.317L50.0656 519.819C49.9104 518.922 49.4015 518.111 48.6598 517.585C48.0734 517.17 47.3748 516.955 46.6676 516.955C46.4692 516.955 46.2794 516.972 46.0811 517.007L25.0889 520.604C17.5855 521.89 10.4443 516.834 9.15062 509.336L7.08935 497.335C6.46838 493.703 7.29634 490.045 9.42661 487.033C11.5569 484.022 14.7307 482.021 18.3617 481.399L30.5137 479.311C31.5487 479.13 32.4456 478.5 32.9458 477.577C33.4461 476.654 33.5151 475.558 33.1183 474.592C32.7302 473.652 32.4456 472.659 32.2731 471.65L26.3567 437.147C25.7357 433.515 26.5637 429.857 28.6939 426.846C30.8242 423.834 33.998 421.833 37.629 421.212L70.3679 415.595C77.8713 414.309 85.0124 419.365 86.2975 426.863L92.214 461.366C93.1023 466.56 91.0152 471.719 86.7719 474.842C85.3747 475.869 84.9521 477.767 85.7887 479.286C86.5217 480.614 87.022 482.064 87.2807 483.582L107.773 603.087C107.928 603.992 108.437 604.795 109.179 605.321C109.929 605.848 110.852 606.063 111.757 605.908L137.243 601.534C144.738 600.248 151.887 605.304 153.181 612.802L155.242 624.803C156.527 632.3 151.473 639.453 143.979 640.739V640.747Z" fill="#6D6145"/>
<path d="M253.045 455.136C251.113 443.886 240.402 436.302 229.146 438.226L197.063 443.73L195.881 436.828L197.149 434.766L223.411 430.262C234.658 428.33 242.239 417.605 240.315 406.354L238.254 394.353C236.322 383.102 225.602 375.518 214.355 377.442L172.371 384.647C166.868 385.587 161.909 388.779 158.761 393.395L141.288 419.046C138.252 423.507 137.079 428.89 137.993 434.205L141.271 453.299L131.18 455.033C125.729 455.965 120.968 458.967 117.777 463.488C114.586 468 113.344 473.496 114.276 478.949L116.337 490.95C118.269 502.201 128.989 509.785 140.236 507.861L150.326 506.127L170.232 622.232C171.163 627.685 174.165 632.447 178.684 635.639C182.22 638.141 186.351 639.444 190.586 639.444C191.759 639.444 192.949 639.341 194.131 639.142L209.129 636.571C214.58 635.639 219.34 632.637 222.531 628.116C225.722 623.604 226.964 618.108 226.033 612.663L206.127 496.559L238.211 491.054C243.662 490.122 248.422 487.12 251.613 482.599C254.805 478.086 256.047 472.59 255.115 467.146L253.054 455.145L253.045 455.136ZM245.964 478.613C243.834 481.624 240.66 483.625 237.029 484.247L201.548 490.338C199.668 490.657 198.408 492.443 198.728 494.324L219.22 613.828C219.841 617.461 219.013 621.119 216.882 624.13C214.752 627.141 211.578 629.143 207.947 629.764L192.949 632.335C189.318 632.956 185.661 632.128 182.651 629.997C179.641 627.866 177.64 624.691 177.019 621.058L156.527 501.554C156.372 500.648 155.863 499.846 155.122 499.319C154.535 498.905 153.837 498.69 153.129 498.69C152.931 498.69 152.741 498.707 152.543 498.741L139.054 501.054C131.559 502.339 124.41 497.283 123.124 489.777L121.063 477.776C120.442 474.143 121.27 470.485 123.4 467.474C125.531 464.463 128.705 462.461 132.336 461.84L145.824 459.528C147.705 459.209 148.964 457.423 148.645 455.542L144.789 433.04C144.177 429.494 144.962 425.905 146.989 422.937L164.462 397.287C166.558 394.206 169.861 392.084 173.535 391.454L215.52 384.25C219.151 383.62 222.807 384.457 225.817 386.588C228.827 388.719 230.828 391.894 231.449 395.526L233.51 407.528C234.796 415.034 229.742 422.178 222.247 423.472L194.45 428.243C193.475 428.407 192.613 428.994 192.095 429.839L189.327 434.335C188.887 435.051 188.723 435.896 188.861 436.724L190.845 448.303C191 449.209 191.509 450.011 192.25 450.538C193.001 451.064 193.924 451.28 194.829 451.124L230.311 445.033C237.814 443.747 244.955 448.803 246.249 456.301L248.31 468.302C248.931 471.935 248.103 475.593 245.973 478.604L245.964 478.613Z" fill="#6D6145"/>
<path d="M587.8 430.141L582.125 426.267C581.383 425.767 580.477 425.56 579.598 425.715L561.357 428.847C560.477 429.002 559.684 429.486 559.157 430.21L555.095 435.758C554.543 436.509 554.319 437.458 554.474 438.381L568.334 519.215C568.489 520.138 569.015 520.958 569.792 521.484L575.466 525.358C576.044 525.755 576.717 525.962 577.407 525.962C577.605 525.962 577.795 525.945 577.993 525.91L596.234 522.779C597.114 522.623 597.908 522.14 598.434 521.415L602.496 515.868C603.048 515.117 603.272 514.168 603.117 513.245L589.257 432.41C589.102 431.487 588.576 430.668 587.8 430.141ZM593.699 516.204L578.209 518.862L574.897 516.601L561.529 438.657L563.901 435.422L579.391 432.764L582.703 435.025L596.071 512.969L593.699 516.204Z" fill="#6D6145"/>
<path d="M754.677 369.315C752.745 358.064 742.016 350.48 730.778 352.404L717.531 354.674C712.08 355.605 707.319 358.608 704.128 363.129C700.937 367.65 699.695 373.137 700.626 378.59L720.006 491.598L717.496 494.962L706.301 496.886L702.817 494.548L683.438 381.541C682.506 376.088 679.505 371.325 674.986 368.133C670.475 364.941 664.99 363.698 659.53 364.63L646.283 366.899C640.832 367.831 636.071 370.834 632.88 375.355C629.689 379.867 628.447 385.363 629.379 390.816L632.13 406.855C630.638 403.792 628.413 401.126 625.575 399.098L600.348 381.032C595.881 377.831 590.215 376.537 584.798 377.46L540.313 385.095C534.896 386.027 529.989 389.142 526.841 393.646L512.938 413.559L512.481 410.884C510.549 399.633 499.829 392.041 488.582 393.973L473.334 396.588C467.883 397.519 463.123 400.522 459.932 405.043C456.741 409.555 455.499 415.051 456.43 420.504L458.431 432.195L454.955 495.014L426.899 437.009L424.993 425.888C423.062 414.637 412.341 407.045 401.095 408.977L385.596 411.635C380.094 412.584 375.126 415.767 371.987 420.392C368.847 425.008 367.692 430.797 368.839 436.267L371.737 450.184C372.099 451.927 372.685 453.609 373.479 455.205L436.99 582.518C439.172 586.883 442.829 590.326 447.254 592.259L444.89 632.093C444.511 638.443 447.012 644.509 451.747 648.754C455.585 652.196 460.458 654.034 465.512 654.034C466.685 654.034 467.875 653.93 469.056 653.732L483.304 651.29C492.645 649.686 499.691 641.964 500.441 632.516L505.4 569.878C505.4 569.878 505.814 563.873 510.748 492.866L512.162 472.452L523.607 539.189C524.53 544.598 527.497 549.335 531.964 552.527L557.191 570.586C561.659 573.786 567.325 575.081 572.741 574.157L617.227 566.522C622.643 565.59 627.55 562.475 630.698 557.972L648.465 532.528C650.802 529.172 652.079 525.289 652.191 521.295C653.562 524.832 655.865 527.938 658.935 530.276L682.912 548.55C686.534 551.311 690.976 552.786 695.478 552.786C696.633 552.786 697.798 552.691 698.953 552.493L742.939 544.943C748.579 543.977 753.616 540.673 756.755 535.884L773.271 510.656C776.152 506.256 777.247 500.985 776.359 495.808L754.668 369.298L754.677 369.315ZM642.825 528.594L625.058 554.037C622.962 557.04 619.685 559.119 616.08 559.74L571.594 567.376C567.989 567.997 564.203 567.126 561.227 564.995L536 546.928C533.025 544.797 531.05 541.639 530.429 538.033L514.137 442.997C513.844 441.271 512.3 440.063 510.567 440.132C508.824 440.219 507.419 441.599 507.298 443.342L503.891 492.391C501.321 529.448 498.561 569.127 498.544 569.343L493.585 631.964C493.084 638.262 488.384 643.413 482.157 644.483L467.909 646.925C463.735 647.641 459.526 646.433 456.37 643.603C453.213 640.773 451.549 636.727 451.799 632.499L454.317 590.084C454.412 588.462 453.368 586.996 451.807 586.556C448.064 585.503 444.925 582.906 443.191 579.429L379.68 452.117C379.154 451.055 378.757 449.925 378.516 448.769L375.618 434.852C374.859 431.203 375.618 427.346 377.722 424.266C379.818 421.186 383.13 419.055 386.795 418.425L402.294 415.767C403.078 415.629 403.863 415.569 404.631 415.569C411.229 415.569 417.076 420.323 418.223 427.044L420.215 438.64C420.267 438.959 420.371 439.27 420.509 439.563L454.584 510.027C455.266 511.442 456.827 512.218 458.371 511.908C459.914 511.597 461.053 510.285 461.139 508.715L465.374 432.169C465.391 431.91 465.374 431.651 465.331 431.392L463.261 419.313C462.64 415.681 463.468 412.023 465.598 409.012C467.728 406.001 470.902 403.999 474.533 403.378L489.781 400.764C497.276 399.478 504.426 404.534 505.72 412.032L507.617 423.118C507.867 424.559 508.997 425.689 510.437 425.94C511.877 426.19 513.318 425.5 514.034 424.214C514.266 423.791 514.517 423.386 514.775 423.023L532.542 397.58C534.638 394.577 537.915 392.498 541.52 391.877L586.006 384.241C589.611 383.629 593.397 384.491 596.372 386.622L621.599 404.689C624.575 406.82 626.55 409.978 627.171 413.576L645.136 518.335C645.757 521.942 644.937 525.574 642.85 528.577L642.825 528.594ZM767.519 506.895L751.003 532.123C748.907 535.315 745.552 537.515 741.792 538.162L697.806 545.711C694.046 546.359 690.148 545.401 687.112 543.089L663.135 524.815C660.35 522.692 658.495 519.621 657.9 516.17L636.209 389.66C635.588 386.027 636.416 382.369 638.547 379.358C640.677 376.347 643.851 374.345 647.482 373.724L660.729 371.455C661.514 371.317 662.299 371.256 663.066 371.256C669.664 371.256 675.512 376.01 676.659 382.731L696.288 497.197C696.452 498.129 696.987 498.957 697.772 499.483L703.628 503.409C704.361 503.901 705.258 504.091 706.129 503.944L720.032 501.554C720.903 501.407 721.688 500.924 722.214 500.217L726.431 494.557C726.992 493.798 727.225 492.84 727.069 491.908L707.44 377.442C706.819 373.81 707.647 370.152 709.777 367.141C711.907 364.13 715.081 362.128 718.712 361.507L731.96 359.238C735.59 358.616 739.247 359.445 742.257 361.576C745.267 363.707 747.268 366.882 747.889 370.514L769.58 497.024C770.175 500.476 769.442 503.987 767.527 506.921L767.519 506.895Z" fill="#6D6145"/>
<path d="M1131.56 330.119C1130.65 324.787 1127.74 320.093 1123.37 316.901L1095.13 296.263C1090.64 292.976 1084.91 291.63 1079.43 292.579L1036.19 299.999C1030.74 300.931 1025.98 303.933 1022.79 308.454C1019.6 312.975 1018.36 318.463 1019.29 323.907L1021.35 335.908C1022.28 341.361 1025.28 346.123 1029.8 349.316C1034.31 352.508 1039.81 353.75 1045.26 352.819L1074.83 347.745L1077.49 349.695L1079.9 363.793L1040.32 370.583C1032.93 371.852 1026.79 377.037 1024.3 384.12L1010.81 422.471C1009.65 425.793 1009.34 429.382 1009.94 432.85L1011.48 441.849C1011.83 443.877 1012.48 445.835 1013.41 447.656C1009.72 446.034 1005.64 445.516 1001.59 446.215L966.79 452.185L962.434 449.511L949.265 372.723L952.481 368.746L987.282 362.775C992.732 361.843 997.493 358.841 1000.68 354.32C1003.88 349.799 1005.12 344.312 1004.19 338.859L1002.12 326.857C1001.19 321.405 998.192 316.642 993.672 313.45C989.153 310.257 983.668 309.015 978.226 309.947L929.989 318.221C924.831 319.11 920.243 321.879 917.06 326.029L897.293 351.809C893.791 356.373 892.342 362.24 893.317 367.909L911.282 472.668C912.256 478.337 915.577 483.384 920.389 486.524L947.617 504.246C951.007 506.446 954.905 507.602 958.89 507.602C960.063 507.602 961.235 507.499 962.408 507.3L1010.65 499.026C1021.89 497.093 1029.47 486.369 1027.55 475.118L1025.56 463.488L1041.26 482.996C1045.23 487.922 1051.19 490.709 1057.38 490.709C1058.55 490.709 1059.71 490.614 1060.88 490.407L1135.86 477.543C1141.31 476.611 1146.07 473.608 1149.26 469.087C1152.45 464.566 1153.69 459.079 1152.76 453.626L1131.58 330.119H1131.56ZM1009.46 492.227L961.227 500.501C957.794 501.088 954.293 500.372 951.369 498.465L924.141 480.744C920.933 478.656 918.716 475.282 918.069 471.503L900.104 366.744C899.458 362.965 900.423 359.057 902.752 356.011L922.52 330.231C924.641 327.461 927.703 325.615 931.136 325.028L979.373 316.754C980.166 316.616 980.951 316.556 981.736 316.556C984.565 316.556 987.316 317.427 989.671 319.092C992.681 321.223 994.682 324.398 995.303 328.031L997.364 340.032C997.985 343.664 997.157 347.323 995.026 350.334C992.896 353.345 989.722 355.347 986.091 355.968L950.015 362.163C949.187 362.301 948.445 362.741 947.919 363.396L942.908 369.6C942.287 370.368 942.02 371.377 942.192 372.352L955.888 452.22C956.052 453.195 956.639 454.058 957.484 454.575L964.28 458.751C964.996 459.191 965.841 459.355 966.669 459.209L1002.75 453.014C1006.38 452.393 1010.03 453.221 1013.04 455.352C1016.05 457.483 1018.05 460.658 1018.68 464.29L1020.74 476.292C1022.02 483.798 1016.97 490.942 1009.46 492.236V492.227ZM1143.61 465.101C1141.48 468.112 1138.31 470.114 1134.68 470.735L1059.69 483.599C1054.76 484.445 1049.75 482.547 1046.62 478.656L1021.12 447C1019.65 445.171 1018.67 442.988 1018.27 440.676L1016.73 431.677C1016.33 429.365 1016.53 426.975 1017.31 424.758L1030.8 386.407C1032.46 381.687 1036.55 378.228 1041.49 377.382L1084.47 370.005C1086.35 369.686 1087.61 367.9 1087.29 366.019L1084.06 347.141C1083.91 346.261 1083.42 345.468 1082.7 344.941L1077.74 341.3C1077.14 340.86 1076.43 340.627 1075.69 340.627C1075.5 340.627 1075.3 340.645 1075.11 340.679L1044.08 346.003C1040.45 346.624 1036.8 345.796 1033.79 343.664C1030.78 341.533 1028.77 338.358 1028.15 334.726L1026.09 322.725C1025.47 319.092 1026.3 315.434 1028.43 312.423C1030.56 309.412 1033.73 307.41 1037.36 306.789L1080.6 299.369C1084.26 298.739 1088.08 299.637 1091.07 301.828L1119.31 322.466C1122.22 324.597 1124.15 327.72 1124.77 331.275L1145.95 454.791C1146.57 458.423 1145.74 462.082 1143.61 465.093V465.101Z" fill="#6D6145"/>
<path d="M1095.17 412.04C1095.01 411.134 1094.5 410.332 1093.76 409.806C1093.01 409.279 1092.09 409.064 1091.18 409.219L1067.65 413.257C1066.37 413.472 1065.32 414.404 1064.94 415.647L1061.44 427.053C1061.12 428.097 1061.31 429.235 1061.96 430.115L1069.06 439.701C1069.72 440.59 1070.75 441.099 1071.83 441.099C1072.02 441.099 1072.22 441.081 1072.41 441.047L1095.94 437.009C1097.82 436.69 1099.08 434.904 1098.76 433.023L1095.17 412.032V412.04ZM1073.35 433.894L1068.55 427.415L1070.91 419.71L1088.95 416.613L1091.38 430.797L1073.35 433.894Z" fill="#6D6145"/>
<path d="M1279.7 431.841L1258.01 305.331C1257.03 299.662 1253.71 294.615 1248.89 291.475L1221.67 273.753C1217.29 270.897 1212.04 269.819 1206.88 270.699L1144.4 281.423C1138.94 282.355 1134.18 285.357 1130.99 289.878C1127.8 294.391 1126.56 299.887 1127.49 305.331L1152.92 453.592C1153.85 459.045 1156.85 463.807 1161.37 467C1164.9 469.502 1169.04 470.804 1173.28 470.804C1174.45 470.804 1175.64 470.701 1176.82 470.502L1192.06 467.888C1197.51 466.956 1202.28 463.954 1205.47 459.433C1208.66 454.921 1209.9 449.425 1208.97 443.98L1189.11 328.126L1200.79 326.115L1204.28 328.454L1223.66 441.461C1224.59 446.914 1227.59 451.676 1232.11 454.869C1236.62 458.061 1242.1 459.312 1247.56 458.372L1262.81 455.757C1274.06 453.825 1281.64 443.1 1279.72 431.85L1279.7 431.841ZM1261.63 448.95L1246.39 451.564C1238.88 452.85 1231.75 447.794 1230.46 440.288L1210.83 325.822C1210.67 324.89 1210.13 324.062 1209.35 323.536L1203.49 319.61C1202.76 319.118 1201.86 318.928 1200.99 319.075L1184.54 321.896C1182.66 322.216 1181.4 324.002 1181.72 325.882L1202.17 445.137C1202.79 448.769 1201.96 452.427 1199.83 455.438C1197.7 458.449 1194.53 460.451 1190.9 461.072L1175.66 463.686C1168.16 464.972 1161.02 459.916 1159.72 452.418L1134.3 304.158C1133.68 300.525 1134.5 296.867 1136.63 293.856C1138.76 290.845 1141.94 288.843 1145.57 288.222L1208.05 277.497C1208.83 277.359 1209.61 277.299 1210.39 277.299C1213.05 277.299 1215.64 278.067 1217.9 279.534L1245.12 297.255C1248.33 299.343 1250.55 302.717 1251.19 306.496L1272.88 433.006C1274.17 440.512 1269.12 447.656 1261.61 448.95H1261.63Z" fill="#6D6145"/>
<path d="M1210.38 291.112L1147.91 301.837L1173.32 450.098L1188.57 447.483L1165.21 311.215L1205.45 304.313L1223.18 316.202L1244.05 437.958L1259.3 435.344L1237.61 308.834L1210.38 291.112Z" fill="#6D6145"/>
</g>
<defs>
<clipPath id="clip0_102_2">
<rect width="1280" height="665" fill="white"/>
</clipPath>
</defs>
</svg>
