<svg width="1002" height="461" viewBox="0 0 1002 461" fill="none" xmlns="http://www.w3.org/2000/svg">
<path d="M82.4729 184.798C66.6127 184.798 52.7464 182.536 40.8739 177.92C29.0015 173.305 19.7572 166.789 13.1413 158.192C6.52533 149.594 3.17203 139.458 2.99077 127.603H25.6482C25.8294 135.748 28.1858 142.716 32.6266 148.327C37.0675 154.029 43.4115 158.282 51.6588 161.088C59.9061 163.983 69.6941 165.431 81.1134 165.431C97.5174 165.431 110.206 162.445 119.268 156.563C128.241 150.68 132.772 142.626 132.772 132.399C132.772 126.97 131.503 122.354 128.875 118.644C126.338 114.933 122.531 111.856 117.456 109.503C112.471 107.15 106.308 105.159 98.9675 103.711C91.6265 102.263 83.1979 101.087 73.5912 100.182C63.4407 99.1865 54.2871 97.648 46.2211 95.3855C38.155 93.1231 31.2672 90.0461 25.5575 86.1547C19.8479 82.2632 15.5883 77.4668 12.5069 71.6749C9.5161 65.9735 7.9754 59.0956 7.9754 51.3127C7.9754 40.1814 10.8755 30.7695 16.7665 23.1676C22.6574 15.5658 30.7234 9.77385 41.1458 5.88241C51.5682 1.99097 63.4407 0 76.9445 0C91.8983 0 104.768 2.26247 115.643 6.8779C126.519 11.4933 134.857 17.9187 140.838 26.4256C146.82 34.842 149.901 44.9778 149.992 56.7426H127.244C127.063 44.7968 122.712 35.6565 114.193 29.1406C105.765 22.6247 93.2578 19.4572 76.7632 19.4572C61.5375 19.4572 49.7556 22.2627 41.5083 27.9641C33.261 33.6655 29.0921 41.2674 29.0921 50.7697C29.0921 56.0186 30.2703 60.4531 32.7173 64.073C35.0736 67.693 38.6082 70.6794 43.1397 73.0324C47.6711 75.3853 53.2902 77.1953 59.9967 78.5528C66.7033 79.9103 74.2256 80.9058 82.6541 81.6298C93.5297 82.6252 103.408 84.2542 112.109 86.6072C120.9 88.9601 128.331 92.1276 134.494 96.2C140.657 100.272 145.37 105.25 148.723 111.313C151.986 117.377 153.617 124.526 153.617 132.852C153.617 149.232 147.273 162.083 134.494 171.223C121.715 180.454 104.315 184.979 82.201 184.979L82.4729 184.798Z" fill="black"/>
<path d="M245.606 184.979C232.827 184.979 221.499 182.264 211.892 176.834C202.194 171.404 194.672 163.803 189.234 154.119C183.797 144.436 181.078 133.123 181.078 120.363C181.078 107.603 183.797 96.2 189.234 86.5167C194.672 76.8333 202.194 69.3219 211.892 63.892C221.589 58.4621 232.827 55.7472 245.606 55.7472C256.3 55.7472 265.816 57.6476 274.336 61.4486C282.764 65.2495 289.743 70.6794 295.271 77.6478C300.799 84.6162 304.334 92.7611 306.056 102.173H283.942C281.677 93.6661 277.145 86.9692 270.348 82.0822C263.551 77.1953 255.303 74.7519 245.606 74.7519C236.724 74.7519 228.93 76.6523 222.314 80.3628C215.698 84.0732 210.532 89.4126 206.817 96.2905C203.101 103.168 201.288 111.132 201.288 120.363C201.288 129.594 203.101 137.558 206.817 144.436C210.532 151.314 215.608 156.563 222.314 160.273C228.93 163.983 236.724 165.884 245.606 165.884C255.303 165.884 263.551 163.441 270.348 158.463C277.145 153.486 281.677 146.698 284.033 138.01H306.056C304.334 147.513 300.799 155.748 295.271 162.807C289.743 169.866 282.855 175.296 274.426 179.187C265.998 183.079 256.391 185.07 245.697 185.07L245.606 184.979Z" fill="black"/>
<path d="M395.054 184.979C382.003 184.979 370.584 182.355 360.887 177.015C351.099 171.676 343.577 164.164 338.229 154.572C332.882 144.979 330.254 133.757 330.254 120.906C330.254 108.055 332.973 96.562 338.411 86.7882C343.848 77.0143 351.371 69.4124 361.068 63.9825C370.765 58.5526 382.094 55.8377 394.873 55.8377C407.652 55.8377 418.165 58.5526 427.499 63.9825C436.744 69.4124 443.994 77.0143 449.16 86.7882C454.326 96.562 456.863 107.965 456.863 120.997V127.875H343.848V111.585H445.807L437.831 116.472C437.016 103.621 432.756 93.3041 424.962 85.7022C417.168 78.1003 407.108 74.2089 394.782 74.2089C385.629 74.2089 377.744 76.1093 370.947 79.9103C364.24 83.7112 358.984 89.1411 355.268 96.1095C351.552 103.078 349.649 111.313 349.649 120.725C349.649 130.137 351.461 138.282 355.177 145.25C358.893 152.128 364.149 157.468 370.947 161.269C377.744 164.979 385.81 166.879 394.963 166.879C404.117 166.879 412.364 164.888 419.162 160.816C425.959 156.744 430.853 150.861 433.844 143.169H454.96C450.882 156.201 443.541 166.427 432.937 173.938C422.334 181.45 409.736 185.16 395.054 185.16V184.979Z" fill="black"/>
<path d="M482.512 182.445V58.4621H502.541V85.0687C505.441 75.7473 510.969 68.5075 519.307 63.53C527.554 58.4621 537.705 56.0186 549.487 56.0186C566.072 56.0186 578.941 60.5436 588.186 69.5029C597.43 78.4623 601.961 91.0416 601.961 107.15V182.626H581.932V112.218C581.932 100.544 578.851 91.4036 572.779 84.8877C566.706 78.3718 557.462 75.1139 545.046 75.1139C537.977 75.1139 531.361 76.3808 525.198 79.0053C519.035 81.6298 513.869 85.7927 509.882 91.4941C505.803 97.286 503.356 104.978 502.631 114.481V182.536H482.602L482.512 182.445Z" fill="black"/>
<path d="M692.591 184.979C679.54 184.979 668.121 182.355 658.423 177.015C648.635 171.676 641.113 164.164 635.766 154.572C630.419 144.979 627.791 133.757 627.791 120.906C627.791 108.055 630.51 96.562 635.947 86.7882C641.385 77.0143 648.907 69.4124 658.605 63.9825C668.302 58.5526 679.631 55.8377 692.41 55.8377C705.188 55.8377 715.701 58.5526 725.036 63.9825C734.28 69.4124 741.531 77.0143 746.697 86.7882C751.862 96.562 754.4 107.965 754.4 120.997V127.875H641.385V111.585H743.343L735.368 116.472C734.552 103.621 730.293 93.3041 722.499 85.7022C714.704 78.1003 704.644 74.2089 692.319 74.2089C683.165 74.2089 675.281 76.1093 668.483 79.9103C661.777 83.7112 656.52 89.1411 652.804 96.1095C649.089 103.078 647.185 111.313 647.185 120.725C647.185 130.137 648.998 138.282 652.714 145.25C656.43 152.128 661.686 157.468 668.483 161.269C675.281 164.979 683.347 166.879 692.5 166.879C701.654 166.879 709.901 164.888 716.698 160.816C723.495 156.744 728.389 150.861 731.38 143.169H752.497C748.419 156.201 741.078 166.427 730.474 173.938C719.87 181.45 707.273 185.16 692.591 185.16V184.979Z" fill="black"/>
<path d="M52.0213 458.285V353.307H0V334.302H72.0505V439.28H124.072V458.285H52.0213ZM69.6035 310.591V259.731H89.8138V310.591H69.6035Z" fill="black"/>
<path d="M149.811 458.285V334.302H169.84V360.909C172.74 351.587 178.268 344.347 186.606 339.37C194.853 334.302 204.913 331.858 216.786 331.858C233.371 331.858 246.24 336.383 255.485 345.343C264.729 354.302 269.26 366.881 269.26 382.99V458.466H249.231V388.058C249.231 376.384 246.15 367.243 240.078 360.728C233.915 354.212 224.671 350.954 212.345 350.954C205.276 350.954 198.66 352.221 192.497 354.845C186.334 357.47 181.168 361.632 177.181 367.334C173.102 373.126 170.746 380.818 169.93 390.321V458.376H149.901L149.811 458.285Z" fill="black"/>
<path d="M459.854 460.819C441.456 460.819 425.415 456.747 411.821 448.602C398.226 440.457 387.713 429.416 380.191 415.479C372.759 401.542 368.953 385.796 368.953 368.239C368.953 350.682 372.759 334.392 380.372 320.365C387.985 306.338 398.498 295.297 412.092 287.243C425.687 279.188 441.547 275.206 459.764 275.206C476.893 275.206 491.665 278.464 504.172 284.89C516.679 291.406 526.648 300.003 533.989 310.863C541.33 321.723 545.59 333.578 546.859 346.519H524.201C522.842 336.926 519.488 328.148 513.96 320.365C508.432 312.582 501.181 306.338 492.028 301.722C482.874 297.107 471.999 294.754 459.492 294.754C445.716 294.754 433.662 297.831 423.24 303.985C412.817 310.139 404.661 318.736 398.86 329.777C393.06 340.818 390.16 353.578 390.16 368.058C390.16 382.538 392.97 394.665 398.679 405.615C404.298 416.565 412.364 425.253 422.787 431.497C433.209 437.742 445.444 440.909 459.492 440.909C471.908 440.909 482.693 438.647 491.846 434.212C501 429.778 508.432 423.534 513.96 415.751C519.488 407.877 522.932 399.099 524.201 389.325H546.859C545.59 402.357 541.33 414.212 533.899 425.072C526.467 435.932 516.588 444.529 503.991 450.955C491.393 457.471 476.711 460.638 459.764 460.638L459.854 460.819Z" fill="black"/>
<path d="M634.769 460.638C622.081 460.638 611.024 457.923 601.418 452.493C591.811 447.063 584.379 439.552 579.032 429.868C573.685 420.185 571.057 408.873 571.057 396.022C571.057 383.171 573.685 371.859 579.032 362.175C584.379 352.492 591.811 344.981 601.418 339.551C611.024 334.121 622.172 331.406 634.86 331.406C647.548 331.406 658.695 334.121 668.302 339.551C677.818 344.981 685.25 352.492 690.597 362.175C695.944 371.859 698.572 383.081 698.572 396.022C698.572 408.963 695.944 420.185 690.597 429.868C685.34 439.552 677.818 447.154 668.302 452.493C658.695 457.923 647.639 460.638 634.95 460.638H634.769ZM634.769 441.543C643.651 441.543 651.264 439.642 657.789 435.932C664.314 432.221 669.299 426.882 672.834 420.095C676.368 413.307 678.181 405.253 678.181 396.112C678.181 386.972 676.368 378.918 672.834 372.04C669.299 365.162 664.224 359.913 657.789 356.112C651.354 352.402 643.651 350.501 634.769 350.501C625.887 350.501 618.365 352.402 611.84 356.112C605.315 359.823 600.239 365.162 596.614 371.949C592.989 378.737 591.176 386.791 591.176 395.931C591.176 405.072 592.989 413.126 596.614 420.004C600.239 426.882 605.315 432.131 611.84 435.841C618.365 439.552 625.978 441.452 634.769 441.452V441.543Z" fill="black"/>
<path d="M783.13 460.819C770.985 460.819 760.382 458.104 751.228 452.674C742.165 447.244 735.096 439.733 730.021 430.049C724.946 420.366 722.499 409.054 722.499 396.112C722.499 383.171 725.036 371.859 730.021 362.175C735.005 352.492 742.165 344.981 751.228 339.641C760.291 334.302 770.985 331.587 783.13 331.587C795.274 331.587 804.518 334.121 812.675 339.189C820.832 344.257 826.994 351.587 831.254 361.18C835.514 370.773 837.689 382.447 837.689 396.112C837.689 409.778 835.514 421.452 831.254 431.045C826.994 440.638 820.741 448.059 812.675 453.127C804.518 458.195 794.64 460.728 783.13 460.728V460.819ZM786.211 441.724C795.093 441.724 802.706 439.823 809.231 436.113C815.756 432.402 820.741 427.063 824.275 420.185C827.81 413.307 829.623 405.343 829.623 396.203C829.623 387.063 827.81 379.008 824.275 372.13C820.741 365.252 815.666 360.004 809.231 356.203C802.796 352.492 795.093 350.592 786.211 350.592C777.329 350.592 769.807 352.492 763.282 356.203C756.757 359.913 751.681 365.252 748.056 372.13C744.431 379.008 742.618 386.972 742.618 396.203C742.618 405.434 744.431 413.307 748.056 420.185C751.681 427.063 756.757 432.402 763.282 436.113C769.807 439.823 777.42 441.724 786.211 441.724ZM829.623 458.285V259.641H849.471V458.285H829.623Z" fill="black"/>
<path d="M940.191 460.819C927.14 460.819 915.721 458.195 906.023 452.855C896.235 447.516 888.713 440.004 883.366 430.411C878.019 420.819 875.391 409.597 875.391 396.746C875.391 383.895 878.109 372.402 883.547 362.628C888.985 352.854 896.507 345.252 906.205 339.822C915.902 334.392 927.231 331.677 940.009 331.677C952.788 331.677 963.301 334.392 972.636 339.822C981.88 345.252 989.131 352.854 994.296 362.628C999.462 372.402 1002 383.805 1002 396.836V403.714H888.985V387.425H990.943L982.968 392.312C982.152 379.461 977.893 369.144 970.098 361.542C962.304 353.94 952.244 350.049 939.919 350.049C930.765 350.049 922.88 351.949 916.083 355.75C909.377 359.551 904.12 364.981 900.404 371.949C896.689 378.918 894.785 387.153 894.785 396.565C894.785 405.977 896.598 414.122 900.314 421.09C904.03 427.968 909.286 433.307 916.083 437.108C922.88 440.819 930.947 442.719 940.1 442.719C949.254 442.719 957.501 440.728 964.298 436.656C971.095 432.583 975.989 426.701 978.98 419.009H1000.1C996.018 432.04 988.678 442.267 978.074 449.778C967.47 457.29 954.873 461 940.191 461V460.819Z" fill="black"/>
</svg>
