<svg width="571" height="503" viewBox="0 0 571 503" fill="none" xmlns="http://www.w3.org/2000/svg">
<path d="M386.663 498.378L425.087 418.983L428.385 420.799L388.807 503H384.519L365.719 464.045L346.919 503H342.631L303.053 420.799L306.021 419.148L344.61 498.378L363.245 459.258L344.775 420.964L347.744 418.983L365.554 454.802L382.87 418.983L386.498 420.799L368.028 459.589L386.663 498.378Z" fill="#1E00FF"/>
<path d="M270.699 493.261L278.45 482.037V481.872L282.738 468.007V453.481L278.615 439.781L278.45 439.616L270.699 429.052L262.948 423.11H246.622L238.377 428.887L230.791 439.121L225.843 454.142V467.512L230.791 482.697L238.047 493.261L246.457 499.039H262.784L270.699 493.261ZM227.163 484.183L226.833 483.688L221.556 467.842V453.977L226.833 437.965L227.163 437.305L235.078 426.411L235.573 425.916L244.643 419.644L246.127 419.148H263.443L264.927 419.644L273.338 425.916L273.833 426.411L281.748 437.305L282.078 438.13L286.696 452.986L286.861 453.646V468.007L286.696 468.667L282.078 483.523L281.748 484.183L273.833 495.737L273.338 496.398L264.927 502.505L263.443 503H246.127L244.808 502.505L235.738 496.398L235.078 495.737L227.163 484.183Z" fill="#1E00FF"/>
<path d="M150.257 439.946V503H145.97V446.384L136.735 460.909L133.272 458.433L145.805 439.286V381.184H150.092V433.179L155.04 426.246L164.44 419.643L165.924 419.148H183.24L184.724 419.643L193.464 426.246L201.545 436.975L202.039 438.461V503H197.917V439.121L190.496 428.887L182.745 423.11H166.419L158.173 428.722L150.257 439.946Z" fill="#1E00FF"/>
<path d="M55.5751 402.312L59.368 392.408L63.4908 382.67L79.4872 370.95H102.41L117.747 382.339L122.859 393.894L119.396 395.544L114.943 385.641L101.255 375.242H80.4767L66.4592 385.971L60.0277 403.632L61.8417 421.294L76.3539 438.791L82.2907 459.754L78.003 477.415L77.6732 478.076L68.4382 492.931L50.9576 503H25.5612L24.9016 502.67L9.39994 490.455L0 472.298V461.404H4.12278V471.308L12.3683 487.649L26.3858 498.708H50.133L65.4698 489.63L74.2101 475.6L78.003 459.424L72.0662 439.946V439.781L57.3891 421.954L55.5751 402.312ZM99.4415 410.07L107.357 412.381H117.747L126.322 408.419L132.259 402.147L136.546 390.923V381.019L133.908 372.436L129.62 367.649L132.589 364.678L137.206 369.63C138.361 372.931 139.35 376.562 140.669 379.863V392.078L136.052 404.293L128.796 411.721L119.231 416.507H107.357L98.1222 413.701L99.4415 410.07Z" fill="#1E00FF"/>
<path d="M566.547 250.427L567.042 251.087L570.835 260.166L571 261.156V320.744H566.877V261.321L563.084 252.573L556.653 245.31L548.572 240.853H535.544L526.804 245.31L519.878 253.233L516.744 257.69V320.744H512.621V263.797L502.232 278.653L498.439 276.507L512.621 256.204V236.892H516.744V250.097L523.835 242.504L524.495 242.009L534.06 237.222L535.214 236.892H548.902L550.056 237.222L558.961 242.009L559.621 242.504L566.547 250.427Z" fill="#1E00FF"/>
<path d="M414.548 300.606L410.59 286.576L410.425 285.916V271.39L410.59 270.73L415.208 255.874L415.538 255.049L423.618 243.99L424.113 243.494L432.524 237.387L434.008 236.892H451.488L452.973 237.387L462.043 243.494L462.537 243.99L470.453 255.049L470.783 255.709L471.772 258.68V236.892H475.895V320.744H471.772V299.451L470.783 302.587L470.453 303.412L462.537 313.646L461.878 314.141L452.808 320.248L451.488 320.744H434.008L432.524 320.248L424.113 314.141L423.618 313.646L416.692 304.898L414.548 300.606ZM419.166 301.431L426.587 311.005L434.502 316.782H451.158L459.569 311.005L467.155 301.101L471.772 285.916V271.555L466.99 257.195L459.239 246.631L450.994 240.688H434.502L426.752 246.466L418.836 257.36L414.548 271.39V285.916L417.517 296.645L419.166 301.431Z" fill="#1E00FF"/>
<path d="M305.331 245.31L305.001 245.805L300.218 252.408V320.744H296.096V259.34L284.057 278.983L280.429 276.837L296.096 251.252V236.892H300.218V245.475L302.527 242.174L303.022 241.679L309.453 237.387L310.938 236.892H328.748L330.232 237.387L336.829 241.679L337.323 242.174L342.271 248.611L347.218 241.844L353.65 237.387L355.134 236.892H370.8L372.285 237.387L379.211 242.339L385.148 250.262L385.477 251.087L388.941 262.477V320.744H384.818V262.147L381.849 252.573L375.913 244.815L370.141 240.853H355.793L349.692 244.98L344.25 252.573V320.744H340.127V259.671L328.253 278.983L324.79 276.837L339.797 252.078L333.86 244.485L328.253 240.853H311.432L305.331 245.31Z" fill="#1E00FF"/>
<path d="M250.809 300.441L255.757 284.76V236.892H259.879V320.744H255.757V298.295L254.437 301.927L246.522 313.481L245.862 314.141L236.792 320.248L235.473 320.744H220.795L219.311 320.248L211.066 314.141L210.571 313.646L202.49 302.092L202.161 301.266L199.027 290.207L183.361 321.239L179.898 319.588L197.543 284.265V236.892H201.666V284.925L205.953 300.111L213.539 311.005L221.455 316.782H234.813L243.718 310.84L250.809 300.441Z" fill="#1E00FF"/>
<path d="M114.906 276.837L111.937 274.361L124.636 256.369V236.892H128.758V250.427L133.046 244.32L133.541 243.66L137.169 241.019L137.993 240.523L144.425 237.222L145.579 236.892H157.948L159.432 237.222L165.369 240.523L166.193 241.019L171.965 246.631L172.46 247.456L175.758 255.544L171.8 257.195L168.172 248.776L162.73 243.66L157.453 240.688H146.239L140.137 243.494L137.004 245.805L128.758 257.525V320.744H124.636V263.302L114.906 276.837Z" fill="#1E00FF"/>
<path d="M132.919 182.421V195.957L125.992 209.987L125.662 210.482L117.252 217.745L104.389 221.376L103.729 221.541H91.5258V217.415H103.564L115.273 214.113L123.189 207.346L128.961 194.966V182.421H132.919ZM77.1785 182.256L80.9715 184.072L76.5189 192.82H117.912V196.947H74.375L11.7088 320.744L9.72982 319.753L7.91579 318.928L69.5926 196.947H40.5682L23.2525 206.851L12.6982 220.551L9.23508 217.91L20.1192 203.88L20.449 203.549L38.9191 192.82H71.7364L77.1785 182.256Z" fill="#1E00FF"/>
<path d="M213.085 64.5394L205.334 75.2684L201.376 87.9782H256.456L253.323 74.9383L245.572 64.2093L237.491 58.5971H221L213.085 64.5394ZM253.653 117.689L257.116 119.835L249.365 131.555L248.541 132.38L239.305 138.157L237.986 138.487H220.506L219.021 137.992L210.116 131.39L202.036 120L201.706 119.175L196.923 102.999V89.2987L197.088 88.6385L202.036 72.9576L210.611 61.4032L219.021 55.1308L220.506 54.6356H237.986L239.47 55.1308L249.035 61.8984L256.951 72.9576L257.446 73.9479L261.074 87.9782V91.9397H201.046V102.999L205.334 117.524L213.085 128.749L221 134.526H237.656L246.067 128.749L253.653 117.689Z" fill="#1E00FF"/>
<path d="M125.295 75.4335V138.487H121.008V81.8709L111.773 96.3964L108.309 93.9205L120.843 74.7732V16.6713H125.13V68.6659L130.078 61.7333L139.478 55.1308L140.962 54.6356H158.277L159.762 55.1308L168.502 61.7333L176.583 72.4623L177.077 73.9479V138.487H172.955V74.6082L165.534 64.3743L157.783 58.5971H141.457L133.211 64.2092L125.295 75.4335Z" fill="#1E00FF"/>
<path d="M132.919 0.16506V13.7002L125.992 27.7305L125.662 28.2257L117.252 35.4884L104.389 39.1198L103.729 39.2848H91.5258V35.1583H103.564L115.273 31.857L123.189 25.0895L128.961 12.7098V0.16506H132.919ZM77.1785 0L80.9715 1.81568L76.5189 10.564H117.912V14.6905H74.375L11.7088 138.487L9.72982 137.497L7.91579 136.672L69.5926 14.6905H40.5682L23.2525 24.5943L12.6982 38.2945L9.23508 35.6535L20.1192 21.6232L20.449 21.293L38.9191 10.564H71.7364L77.1785 0Z" fill="#1E00FF"/>
</svg>
